<?xml version="1.0" encoding="utf-8"?>
<!-- Generator: Adobe Illustrator 18.1.1, SVG Export Plug-In . SVG Version: 6.00 Build 0)  -->
<svg version="1.1" xmlns="http://www.w3.org/2000/svg" xmlns:xlink="http://www.w3.org/1999/xlink" x="0px" y="0px"
	 viewBox="0 0 104.5 390.1333313" style="enable-background:new 0 0 104.5 390.1333313;" xml:space="preserve">
<g id="Layer_2" style="display:none;">
	
		<image style="display:inline;overflow:visible;" width="75" height="280" xlink:href="../../A5/Nathan-pixeled.png"  transform="matrix(1 0 0 1 102.2666702 133.7333374)">
	</image>
</g>
<g id="Layer_3">
	<g id="XMLID_1_">
		<g>
			<rect x="97.5333328" y="383.1666565" width="6.9666667" height="6.9666667"/>
			<rect x="97.5333328" y="376.2000122" style="fill:#EFBB3A;" width="6.9666667" height="6.9666667"/>
			<rect x="97.5333328" y="215.9666595" width="6.9666667" height="6.9666667"/>
			<rect x="97.5333328" y="209" width="6.9666667" height="6.9666667"/>
			<rect x="97.5333328" y="202.0333405" width="6.9666667" height="6.9666667"/>
			<rect x="97.5333328" y="195.0666656" width="6.9666667" height="6.9666667"/>
			<rect x="97.5333328" y="188.0999908" width="6.9666667" height="6.9666667"/>
			<rect x="97.5333328" y="181.1333313" width="6.9666667" height="6.9666667"/>
			<rect x="90.5666733" y="383.1666565" width="6.9666667" height="6.9666667"/>
			<rect x="90.5666733" y="376.2000122" style="fill:#EFBB3A;" width="6.9666667" height="6.9666667"/>
			<rect x="90.5666733" y="264.7333374" width="6.9666667" height="6.9666667"/>
			<rect x="90.5666733" y="257.7666626" width="6.9666667" height="6.9666667"/>
			<rect x="90.5666733" y="250.8000031" width="6.9666667" height="6.9666667"/>
			<rect x="90.5666733" y="243.8333282" width="6.9666667" height="6.9666667"/>
			<rect x="90.5666733" y="236.8666687" width="6.9666667" height="6.9666667"/>
			<rect x="90.5666733" y="229.8999939" width="6.9666667" height="6.9666667"/>
			<rect x="90.5666733" y="222.9333344" width="6.9666667" height="6.9666667"/>
			<rect x="90.5666733" y="215.9666595" style="fill:#FFFFFF;" width="6.9666667" height="6.9666667"/>
			<rect x="90.5666733" y="209" style="fill:#FFFFFF;" width="6.9666667" height="6.9666667"/>
			<rect x="90.5666733" y="202.0333405" style="fill:#FFFFFF;" width="6.9666667" height="6.9666667"/>
			<rect x="90.5666733" y="195.0666656" style="fill:#FFFFFF;" width="6.9666667" height="6.9666667"/>
			<rect x="90.5666733" y="188.0999908" style="fill:#FFFFFF;" width="6.9666667" height="6.9666667"/>
			<rect x="90.5666733" y="181.1333313" style="fill:#FFFFFF;" width="6.9666667" height="6.9666667"/>
			<rect x="90.5666733" y="174.1666565" width="6.9666667" height="6.9666667"/>
			<rect x="90.5666733" y="104.5" width="6.9666667" height="6.9666667"/>
			<rect x="90.5666733" y="97.5333328" width="6.9666667" height="6.9666667"/>
			<rect x="90.5666733" y="90.5666656" width="6.9666667" height="6.9666667"/>
			<rect x="90.5666733" y="83.5999985" width="6.9666667" height="6.9666667"/>
			<rect x="90.5666733" y="76.6333313" width="6.9666667" height="6.9666667"/>
			<rect x="90.5666733" y="69.6666641" width="6.9666667" height="6.9666667"/>
			<rect x="90.5666733" y="62.7000008" width="6.9666667" height="6.9666667"/>
			<rect x="90.5666733" y="55.7333336" width="6.9666667" height="6.9666667"/>
			<rect x="90.5666733" y="48.7666664" width="6.9666667" height="6.9666667"/>
			<rect x="83.5999985" y="383.1666565" width="6.9666667" height="6.9666667"/>
			<rect x="83.5999985" y="376.2000122" style="fill:#EFBB3A;" width="6.9666667" height="6.9666667"/>
			<rect x="83.5999985" y="369.2333374" style="fill:#EFBB3A;" width="6.9666667" height="6.9666667"/>
			<rect x="83.5999985" y="271.6999817" width="6.9666667" height="6.9666667"/>
			<rect x="83.5999985" y="264.7333374" width="6.9666667" height="6.9666667"/>
			<rect x="83.5999985" y="257.7666626" style="fill:#FCD8A8;" width="6.9666667" height="6.9666667"/>
			<rect x="83.5999985" y="250.8000031" style="fill:#FCD8A8;" width="6.9666667" height="6.9666667"/>
			<rect x="83.5999985" y="243.8333282" style="fill:#FCD8A8;" width="6.9666667" height="6.9666667"/>
			<rect x="83.5999985" y="236.8666687" style="fill:#FCD8A8;" width="6.9666667" height="6.9666667"/>
			<rect x="83.5999985" y="229.8999939" style="fill:#FCD8A8;" width="6.9666667" height="6.9666667"/>
			<rect x="83.5999985" y="222.9333344" style="fill:#FCD8A8;" width="6.9666667" height="6.9666667"/>
			<rect x="83.5999985" y="215.9666595" style="fill:#FFFFFF;" width="6.9666667" height="6.9666667"/>
			<rect x="83.5999985" y="209" style="fill:#FFFFFF;" width="6.9666667" height="6.9666667"/>
			<rect x="83.5999985" y="202.0333405" style="fill:#FFFFFF;" width="6.9666667" height="6.9666667"/>
			<rect x="83.5999985" y="195.0666656" style="fill:#FFFFFF;" width="6.9666667" height="6.9666667"/>
			<rect x="83.5999985" y="188.0999908" style="fill:#FFFFFF;" width="6.9666667" height="6.9666667"/>
			<rect x="83.5999985" y="181.1333313" style="fill:#FFFFFF;" width="6.9666667" height="6.9666667"/>
			<rect x="83.5999985" y="174.1666565" style="fill:#FFFFFF;" width="6.9666667" height="6.9666667"/>
			<rect x="83.5999985" y="167.1999969" width="6.9666667" height="6.9666667"/>
			<rect x="83.5999985" y="125.4000015" width="6.9666667" height="6.9666667"/>
			<rect x="83.5999985" y="118.4333344" width="6.9666667" height="6.9666667"/>
			<rect x="83.5999985" y="111.4666672" width="6.9666667" height="6.9666667"/>
			<rect x="83.5999985" y="104.5" style="fill:#FCD8A8;" width="6.9666667" height="6.9666667"/>
			<rect x="83.5999985" y="97.5333328" style="fill:#FCD8A8;" width="6.9666667" height="6.9666667"/>
			<rect x="83.5999985" y="90.5666656" style="fill:#BB6128;" width="6.9666667" height="6.9666667"/>
			<rect x="83.5999985" y="83.5999985" style="fill:#BB6128;" width="6.9666667" height="6.9666667"/>
			<rect x="83.5999985" y="76.6333313" style="fill:#BB6128;" width="6.9666667" height="6.9666667"/>
			<rect x="83.5999985" y="69.6666641" style="fill:#BB6128;" width="6.9666667" height="6.9666667"/>
			<rect x="83.5999985" y="62.7000008" style="fill:#BB6128;" width="6.9666667" height="6.9666667"/>
			<rect x="83.5999985" y="55.7333336" style="fill:#BB6128;" width="6.9666667" height="6.9666667"/>
			<rect x="83.5999985" y="48.7666664" style="fill:#BB6128;" width="6.9666667" height="6.9666667"/>
			<rect x="83.5999985" y="41.7999992" width="6.9666667" height="6.9666667"/>
			<rect x="76.6333313" y="383.1666565" width="6.9666667" height="6.9666667"/>
			<rect x="76.6333313" y="376.2000122" style="fill:#EFBB3A;" width="6.9666667" height="6.9666667"/>
			<rect x="76.6333313" y="369.2333374" style="fill:#EFBB3A;" width="6.9666667" height="6.9666667"/>
			<rect x="76.6333313" y="362.2666626" width="6.9666667" height="6.9666667"/>
			<rect x="76.6333313" y="355.2999878" width="6.9666667" height="6.9666667"/>
			<rect x="76.6333313" y="348.3333435" width="6.9666667" height="6.9666667"/>
			<rect x="76.6333313" y="341.3666687" width="6.9666667" height="6.9666667"/>
			<rect x="76.6333313" y="334.3999939" width="6.9666667" height="6.9666667"/>
			<rect x="76.6333313" y="327.4333191" width="6.9666667" height="6.9666667"/>
			<rect x="76.6333313" y="320.4666443" width="6.9666667" height="6.9666667"/>
			<rect x="76.6333313" y="313.5" width="6.9666667" height="6.9666667"/>
			<rect x="76.6333313" y="306.5333252" width="6.9666667" height="6.9666667"/>
			<rect x="76.6333313" y="299.5666504" width="6.9666667" height="6.9666667"/>
			<rect x="76.6333313" y="292.6000061" width="6.9666667" height="6.9666667"/>
			<rect x="76.6333313" y="285.6333313" width="6.9666667" height="6.9666667"/>
			<rect x="76.6333313" y="278.6666565" width="6.9666667" height="6.9666667"/>
			<rect x="76.6333313" y="271.6999817" width="6.9666667" height="6.9666667"/>
			<rect x="76.6333313" y="264.7333374" style="fill:#FCD8A8;" width="6.9666667" height="6.9666667"/>
			<rect x="76.6333313" y="257.7666626" style="fill:#FCD8A8;" width="6.9666667" height="6.9666667"/>
			<rect x="76.6333313" y="250.8000031" style="fill:#FCD8A8;" width="6.9666667" height="6.9666667"/>
			<rect x="76.6333313" y="243.8333282" width="6.9666667" height="6.9666667"/>
			<rect x="76.6333313" y="236.8666687" width="6.9666667" height="6.9666667"/>
			<rect x="76.6333313" y="229.8999939" width="6.9666667" height="6.9666667"/>
			<rect x="76.6333313" y="222.9333344" width="6.9666667" height="6.9666667"/>
			<rect x="76.6333313" y="215.9666595" width="6.9666667" height="6.9666667"/>
			<rect x="76.6333313" y="209" width="6.9666667" height="6.9666667"/>
			<rect x="76.6333313" y="202.0333405" width="6.9666667" height="6.9666667"/>
			<rect x="76.6333313" y="195.0666656" width="6.9666667" height="6.9666667"/>
			<rect x="76.6333313" y="188.0999908" style="fill:#FFFFFF;" width="6.9666667" height="6.9666667"/>
			<rect x="76.6333313" y="181.1333313" style="fill:#FFFFFF;" width="6.9666667" height="6.9666667"/>
			<rect x="76.6333313" y="174.1666565" style="fill:#FFFFFF;" width="6.9666667" height="6.9666667"/>
			<rect x="76.6333313" y="167.1999969" style="fill:#FFFFFF;" width="6.9666667" height="6.9666667"/>
			<rect x="76.6333313" y="160.2333221" width="6.9666667" height="6.9666667"/>
			<rect x="76.6333313" y="132.3666687" width="6.9666667" height="6.9666667"/>
			<rect x="76.6333313" y="125.4000015" style="fill:#BB6128;" width="6.9666667" height="6.9666667"/>
			<rect x="76.6333313" y="118.4333344" style="fill:#BB6128;" width="6.9666667" height="6.9666667"/>
			<rect x="76.6333313" y="111.4666672" style="fill:#BB6128;" width="6.9666667" height="6.9666667"/>
			<rect x="76.6333313" y="104.5" style="fill:#BB6128;" width="6.9666667" height="6.9666667"/>
			<rect x="76.6333313" y="97.5333328" style="fill:#BB6128;" width="6.9666667" height="6.9666667"/>
			<rect x="76.6333313" y="90.5666656" width="6.9666667" height="6.9666667"/>
			<rect x="76.6333313" y="83.5999985" width="6.9666667" height="6.9666667"/>
			<rect x="76.6333313" y="76.6333313" style="fill:#BB6128;" width="6.9666667" height="6.9666667"/>
			<rect x="76.6333313" y="69.6666641" width="6.9666667" height="6.9666667"/>
			<rect x="76.6333313" y="62.7000008" width="6.9666667" height="6.9666667"/>
			<rect x="76.6333313" y="55.7333336" width="6.9666667" height="6.9666667"/>
			<rect x="76.6333313" y="48.7666664" style="fill:#BB6128;" width="6.9666667" height="6.9666667"/>
			<rect x="76.6333313" y="41.7999992" style="fill:#BB6128;" width="6.9666667" height="6.9666667"/>
			<rect x="76.6333313" y="34.8333321" width="6.9666667" height="6.9666667"/>
			<rect x="69.6666641" y="383.1666565" width="6.9666667" height="6.9666667"/>
			<rect x="69.6666641" y="376.2000122" style="fill:#EFBB3A;" width="6.9666667" height="6.9666667"/>
			<rect x="69.6666641" y="369.2333374" width="6.9666667" height="6.9666667"/>
			<rect x="69.6666641" y="362.2666626" width="6.9666667" height="6.9666667"/>
			<rect x="69.6666641" y="355.2999878" width="6.9666667" height="6.9666667"/>
			<rect x="69.6666641" y="348.3333435" width="6.9666667" height="6.9666667"/>
			<rect x="69.6666641" y="341.3666687" width="6.9666667" height="6.9666667"/>
			<rect x="69.6666641" y="334.3999939" width="6.9666667" height="6.9666667"/>
			<rect x="69.6666641" y="327.4333191" width="6.9666667" height="6.9666667"/>
			<rect x="69.6666641" y="320.4666443" width="6.9666667" height="6.9666667"/>
			<rect x="69.6666641" y="313.5" width="6.9666667" height="6.9666667"/>
			<rect x="69.6666641" y="306.5333252" width="6.9666667" height="6.9666667"/>
			<rect x="69.6666641" y="299.5666504" width="6.9666667" height="6.9666667"/>
			<rect x="69.6666641" y="292.6000061" width="6.9666667" height="6.9666667"/>
			<rect x="69.6666641" y="285.6333313" width="6.9666667" height="6.9666667"/>
			<rect x="69.6666641" y="278.6666565" width="6.9666667" height="6.9666667"/>
			<rect x="69.6666641" y="271.6999817" width="6.9666667" height="6.9666667"/>
			<rect x="69.6666641" y="264.7333374" width="6.9666667" height="6.9666667"/>
			<rect x="69.6666641" y="257.7666626" width="6.9666667" height="6.9666667"/>
			<rect x="69.6666641" y="250.8000031" style="fill:#5F3A16;" width="6.9666667" height="6.9666667"/>
			<rect x="69.6666641" y="243.8333282" width="6.9666667" height="6.9666667"/>
			<rect x="69.6666641" y="236.8666687" style="fill:#FFFFFF;" width="6.9666667" height="6.9666667"/>
			<rect x="69.6666641" y="229.8999939" style="fill:#FFFFFF;" width="6.9666667" height="6.9666667"/>
			<rect x="69.6666641" y="222.9333344" style="fill:#FFFFFF;" width="6.9666667" height="6.9666667"/>
			<rect x="69.6666641" y="215.9666595" style="fill:#FFFFFF;" width="6.9666667" height="6.9666667"/>
			<rect x="69.6666641" y="209" style="fill:#FFFFFF;" width="6.9666667" height="6.9666667"/>
			<rect x="69.6666641" y="202.0333405" width="6.9666667" height="6.9666667"/>
			<rect x="69.6666641" y="195.0666656" width="6.9666667" height="6.9666667"/>
			<rect x="69.6666641" y="188.0999908" width="6.9666667" height="6.9666667"/>
			<rect x="69.6666641" y="181.1333313" style="fill:#ED2024;" width="6.9666667" height="6.9666667"/>
			<rect x="69.6666641" y="174.1666565" style="fill:#FFFFFF;" width="6.9666667" height="6.9666667"/>
			<rect x="69.6666641" y="167.1999969" style="fill:#FFFFFF;" width="6.9666667" height="6.9666667"/>
			<rect x="69.6666641" y="160.2333221" width="6.9666667" height="6.9666667"/>
			<rect x="69.6666641" y="146.3000031" width="6.9666667" height="6.9666667"/>
			<rect x="69.6666641" y="139.3333282" width="6.9666667" height="6.9666667"/>
			<rect x="69.6666641" y="132.3666687" style="fill:#BB6128;" width="6.9666667" height="6.9666667"/>
			<rect x="69.6666641" y="125.4000015" style="fill:#BB6128;" width="6.9666667" height="6.9666667"/>
			<rect x="69.6666641" y="118.4333344" style="fill:#BB6128;" width="6.9666667" height="6.9666667"/>
			<rect x="69.6666641" y="111.4666672" style="fill:#FCD8A8;" width="6.9666667" height="6.9666667"/>
			<rect x="69.6666641" y="104.5" style="fill:#FCD8A8;" width="6.9666667" height="6.9666667"/>
			<rect x="69.6666641" y="97.5333328" style="fill:#FCD8A8;" width="6.9666667" height="6.9666667"/>
			<rect x="69.6666641" y="90.5666656" style="fill:#FCD8A8;" width="6.9666667" height="6.9666667"/>
			<rect x="69.6666641" y="83.5999985" style="fill:#FCD8A8;" width="6.9666667" height="6.9666667"/>
			<rect x="69.6666641" y="76.6333313" width="6.9666667" height="6.9666667"/>
			<rect x="69.6666641" y="69.6666641" style="fill:#FCD8A8;" width="6.9666667" height="6.9666667"/>
			<rect x="69.6666641" y="62.7000008" style="fill:#FCD8A8;" width="6.9666667" height="6.9666667"/>
			<rect x="69.6666641" y="55.7333336" style="fill:#FCD8A8;" width="6.9666667" height="6.9666667"/>
			<rect x="69.6666641" y="48.7666664" width="6.9666667" height="6.9666667"/>
			<rect x="69.6666641" y="41.7999992" style="fill:#BB6128;" width="6.9666667" height="6.9666667"/>
			<rect x="69.6666641" y="34.8333321" style="fill:#BB6128;" width="6.9666667" height="6.9666667"/>
			<rect x="69.6666641" y="27.8666649" width="6.9666667" height="6.9666667"/>
			<rect x="69.6666641" y="20.9000015" width="6.9666667" height="6.9666667"/>
			<rect x="69.6666641" y="13.9333344" width="6.9666667" height="6.9666667"/>
			<rect x="69.6666641" y="6.9666672" width="6.9666667" height="6.9666667"/>
			<rect x="62.6999969" y="383.1666565" width="6.9666667" height="6.9666667"/>
			<rect x="62.6999969" y="376.2000122" style="fill:#EFBB3A;" width="6.9666667" height="6.9666667"/>
			<rect x="62.6999969" y="369.2333374" width="6.9666667" height="6.9666667"/>
			<rect x="62.6999969" y="362.2666626" width="6.9666667" height="6.9666667"/>
			<rect x="62.6999969" y="355.2999878" width="6.9666667" height="6.9666667"/>
			<rect x="62.6999969" y="348.3333435" width="6.9666667" height="6.9666667"/>
			<rect x="62.6999969" y="341.3666687" width="6.9666667" height="6.9666667"/>
			<rect x="62.6999969" y="334.3999939" width="6.9666667" height="6.9666667"/>
			<rect x="62.6999969" y="327.4333191" width="6.9666667" height="6.9666667"/>
			<rect x="62.6999969" y="320.4666443" width="6.9666667" height="6.9666667"/>
			<rect x="62.6999969" y="313.5" width="6.9666667" height="6.9666667"/>
			<rect x="62.6999969" y="306.5333252" width="6.9666667" height="6.9666667"/>
			<rect x="62.6999969" y="299.5666504" width="6.9666667" height="6.9666667"/>
			<rect x="62.6999969" y="292.6000061" width="6.9666667" height="6.9666667"/>
			<rect x="62.6999969" y="285.6333313" width="6.9666667" height="6.9666667"/>
			<rect x="62.6999969" y="278.6666565" width="6.9666667" height="6.9666667"/>
			<rect x="62.6999969" y="271.6999817" width="6.9666667" height="6.9666667"/>
			<rect x="62.6999969" y="264.7333374" width="6.9666667" height="6.9666667"/>
			<rect x="62.6999969" y="257.7666626" width="6.9666667" height="6.9666667"/>
			<rect x="62.6999969" y="250.8000031" width="6.9666667" height="6.9666667"/>
			<rect x="62.6999969" y="243.8333282" width="6.9666667" height="6.9666667"/>
			<rect x="62.6999969" y="236.8666687" style="fill:#FFFFFF;" width="6.9666667" height="6.9666667"/>
			<rect x="62.6999969" y="229.8999939" style="fill:#FFFFFF;" width="6.9666667" height="6.9666667"/>
			<rect x="62.6999969" y="222.9333344" style="fill:#FFFFFF;" width="6.9666667" height="6.9666667"/>
			<rect x="62.6999969" y="215.9666595" style="fill:#FFFFFF;" width="6.9666667" height="6.9666667"/>
			<rect x="62.6999969" y="209" width="6.9666667" height="6.9666667"/>
			<rect x="62.6999969" y="202.0333405" style="fill:#FFFFFF;" width="6.9666667" height="6.9666667"/>
			<rect x="62.6999969" y="195.0666656" style="fill:#FFFFFF;" width="6.9666667" height="6.9666667"/>
			<rect x="62.6999969" y="188.0999908" width="6.9666667" height="6.9666667"/>
			<rect x="62.6999969" y="181.1333313" style="fill:#ED2024;" width="6.9666667" height="6.9666667"/>
			<rect x="62.6999969" y="174.1666565" style="fill:#ED2024;" width="6.9666667" height="6.9666667"/>
			<rect x="62.6999969" y="167.1999969" style="fill:#FFFFFF;" width="6.9666667" height="6.9666667"/>
			<rect x="62.6999969" y="160.2333221" width="6.9666667" height="6.9666667"/>
			<rect x="62.6999969" y="153.2666626" width="6.9666667" height="6.9666667"/>
			<rect x="62.6999969" y="146.3000031" style="fill:#BB6128;" width="6.9666667" height="6.9666667"/>
			<rect x="62.6999969" y="139.3333282" style="fill:#BB6128;" width="6.9666667" height="6.9666667"/>
			<rect x="62.6999969" y="132.3666687" style="fill:#BB6128;" width="6.9666667" height="6.9666667"/>
			<rect x="62.6999969" y="125.4000015" style="fill:#BB6128;" width="6.9666667" height="6.9666667"/>
			<rect x="62.6999969" y="118.4333344" style="fill:#BB6128;" width="6.9666667" height="6.9666667"/>
			<rect x="62.6999969" y="111.4666672" style="fill:#FCD8A8;" width="6.9666667" height="6.9666667"/>
			<rect x="62.6999969" y="104.5" style="fill:#FCD8A8;" width="6.9666667" height="6.9666667"/>
			<rect x="62.6999969" y="97.5333328" style="fill:#FCD8A8;" width="6.9666667" height="6.9666667"/>
			<rect x="62.6999969" y="90.5666656" style="fill:#97A1AA;" width="6.9666667" height="6.9666667"/>
			<rect x="62.6999969" y="83.5999985" style="fill:#97A1AA;" width="6.9666667" height="6.9666667"/>
			<rect x="62.6999969" y="76.6333313" style="fill:#FCD8A8;" width="6.9666667" height="6.9666667"/>
			<rect x="62.6999969" y="69.6666641" width="6.9666667" height="6.9666667"/>
			<rect x="62.6999969" y="62.7000008" style="fill:#FCD8A8;" width="6.9666667" height="6.9666667"/>
			<rect x="62.6999969" y="55.7333336" width="6.9666667" height="6.9666667"/>
			<rect x="62.6999969" y="48.7666664" style="fill:#BB6128;" width="6.9666667" height="6.9666667"/>
			<rect x="62.6999969" y="41.7999992" style="fill:#BB6128;" width="6.9666667" height="6.9666667"/>
			<rect x="62.6999969" y="34.8333321" style="fill:#BB6128;" width="6.9666667" height="6.9666667"/>
			<rect x="62.6999969" y="27.8666649" style="fill:#BB6128;" width="6.9666667" height="6.9666667"/>
			<rect x="62.6999969" y="20.9000015" style="fill:#BB6128;" width="6.9666667" height="6.9666667"/>
			<rect x="62.6999969" y="13.9333344" style="fill:#BB6128;" width="6.9666667" height="6.9666667"/>
			<rect x="62.6999969" y="6.9666672" style="fill:#BB6128;" width="6.9666667" height="6.9666667"/>
			<rect x="62.6999969" y="0" width="6.9666667" height="6.9666667"/>
			<rect x="55.7333298" y="383.1666565" width="6.9666667" height="6.9666667"/>
			<rect x="55.7333298" y="376.2000122" style="fill:#EFBB3A;" width="6.9666667" height="6.9666667"/>
			<rect x="55.7333298" y="369.2333374" width="6.9666667" height="6.9666667"/>
			<rect x="55.7333298" y="362.2666626" width="6.9666667" height="6.9666667"/>
			<rect x="55.7333298" y="355.2999878" width="6.9666667" height="6.9666667"/>
			<rect x="55.7333298" y="348.3333435" width="6.9666667" height="6.9666667"/>
			<rect x="55.7333298" y="341.3666687" width="6.9666667" height="6.9666667"/>
			<rect x="55.7333298" y="334.3999939" width="6.9666667" height="6.9666667"/>
			<rect x="55.7333298" y="327.4333191" width="6.9666667" height="6.9666667"/>
			<rect x="55.7333298" y="320.4666443" width="6.9666667" height="6.9666667"/>
			<rect x="55.7333298" y="313.5" width="6.9666667" height="6.9666667"/>
			<rect x="55.7333298" y="306.5333252" width="6.9666667" height="6.9666667"/>
			<rect x="55.7333298" y="299.5666504" width="6.9666667" height="6.9666667"/>
			<rect x="55.7333298" y="292.6000061" width="6.9666667" height="6.9666667"/>
			<rect x="55.7333298" y="285.6333313" width="6.9666667" height="6.9666667"/>
			<rect x="55.7333298" y="278.6666565" width="6.9666667" height="6.9666667"/>
			<rect x="55.7333298" y="271.6999817" width="6.9666667" height="6.9666667"/>
			<rect x="55.7333298" y="264.7333374" width="6.9666667" height="6.9666667"/>
			<rect x="55.7333298" y="257.7666626" width="6.9666667" height="6.9666667"/>
			<rect x="55.7333298" y="250.8000031" style="fill:#5F3A16;" width="6.9666667" height="6.9666667"/>
			<rect x="55.7333298" y="243.8333282" width="6.9666667" height="6.9666667"/>
			<rect x="55.7333298" y="236.8666687" style="fill:#FFFFFF;" width="6.9666667" height="6.9666667"/>
			<rect x="55.7333298" y="229.8999939" style="fill:#FFFFFF;" width="6.9666667" height="6.9666667"/>
			<rect x="55.7333298" y="222.9333344" style="fill:#FFFFFF;" width="6.9666667" height="6.9666667"/>
			<rect x="55.7333298" y="215.9666595" style="fill:#FFFFFF;" width="6.9666667" height="6.9666667"/>
			<rect x="55.7333298" y="209" style="fill:#FFFFFF;" width="6.9666667" height="6.9666667"/>
			<rect x="55.7333298" y="202.0333405" width="6.9666667" height="6.9666667"/>
			<rect x="55.7333298" y="195.0666656" width="6.9666667" height="6.9666667"/>
			<rect x="55.7333298" y="188.0999908" width="6.9666667" height="6.9666667"/>
			<rect x="55.7333298" y="181.1333313" style="fill:#FFFFFF;" width="6.9666667" height="6.9666667"/>
			<rect x="55.7333298" y="174.1666565" style="fill:#FFFFFF;" width="6.9666667" height="6.9666667"/>
			<rect x="55.7333298" y="167.1999969" style="fill:#5682B8;" width="6.9666667" height="6.9666667"/>
			<rect x="55.7333298" y="160.2333221" style="fill:#5682B8;" width="6.9666667" height="6.9666667"/>
			<rect x="55.7333298" y="153.2666626" style="fill:#5682B8;" width="6.9666667" height="6.9666667"/>
			<rect x="55.7333298" y="146.3000031" style="fill:#BB6128;" width="6.9666667" height="6.9666667"/>
			<rect x="55.7333298" y="139.3333282" style="fill:#BB6128;" width="6.9666667" height="6.9666667"/>
			<rect x="55.7333298" y="132.3666687" style="fill:#FCD8A8;" width="6.9666667" height="6.9666667"/>
			<rect x="55.7333298" y="125.4000015" style="fill:#FCD8A8;" width="6.9666667" height="6.9666667"/>
			<rect x="55.7333298" y="118.4333344" style="fill:#BB6128;" width="6.9666667" height="6.9666667"/>
			<rect x="55.7333298" y="111.4666672" style="fill:#FCD8A8;" width="6.9666667" height="6.9666667"/>
			<rect x="55.7333298" y="104.5" style="fill:#FCD8A8;" width="6.9666667" height="6.9666667"/>
			<rect x="55.7333298" y="97.5333328" style="fill:#FCD8A8;" width="6.9666667" height="6.9666667"/>
			<rect x="55.7333298" y="90.5666656" style="fill:#97A1AA;" width="6.9666667" height="6.9666667"/>
			<rect x="55.7333298" y="83.5999985" style="fill:#302718;" width="6.9666667" height="6.9666667"/>
			<rect x="55.7333298" y="76.6333313" style="fill:#FCD8A8;" width="6.9666667" height="6.9666667"/>
			<rect x="55.7333298" y="69.6666641" width="6.9666667" height="6.9666667"/>
			<rect x="55.7333298" y="62.7000008" style="fill:#FCD8A8;" width="6.9666667" height="6.9666667"/>
			<rect x="55.7333298" y="55.7333336" width="6.9666667" height="6.9666667"/>
			<rect x="55.7333298" y="48.7666664" style="fill:#BB6128;" width="6.9666667" height="6.9666667"/>
			<rect x="55.7333298" y="41.7999992" style="fill:#BB6128;" width="6.9666667" height="6.9666667"/>
			<rect x="55.7333298" y="34.8333321" style="fill:#BB6128;" width="6.9666667" height="6.9666667"/>
			<rect x="55.7333298" y="27.8666649" style="fill:#BB6128;" width="6.9666667" height="6.9666667"/>
			<rect x="55.7333298" y="20.9000015" style="fill:#BB6128;" width="6.9666667" height="6.9666667"/>
			<rect x="55.7333298" y="13.9333344" style="fill:#BB6128;" width="6.9666667" height="6.9666667"/>
			<rect x="55.7333298" y="6.9666672" width="6.9666667" height="6.9666667"/>
			<rect x="48.7666626" y="271.6999817" width="6.9666667" height="6.9666667"/>
			<rect x="48.7666626" y="264.7333374" width="6.9666667" height="6.9666667"/>
			<rect x="48.7666626" y="257.7666626" width="6.9666667" height="6.9666667"/>
			<rect x="48.7666626" y="250.8000031" style="fill:#5F3A16;" width="6.9666667" height="6.9666667"/>
			<rect x="48.7666626" y="243.8333282" width="6.9666667" height="6.9666667"/>
			<rect x="48.7666626" y="236.8666687" style="fill:#FFFFFF;" width="6.9666667" height="6.9666667"/>
			<rect x="48.7666626" y="229.8999939" style="fill:#FFFFFF;" width="6.9666667" height="6.9666667"/>
			<rect x="48.7666626" y="222.9333344" style="fill:#FFFFFF;" width="6.9666667" height="6.9666667"/>
			<rect x="48.7666626" y="215.9666595" style="fill:#FFFFFF;" width="6.9666667" height="6.9666667"/>
			<rect x="48.7666626" y="209" style="fill:#FFFFFF;" width="6.9666667" height="6.9666667"/>
			<rect x="48.7666626" y="202.0333405" style="fill:#FFFFFF;" width="6.9666667" height="6.9666667"/>
			<rect x="48.7666626" y="195.0666656" style="fill:#FFFFFF;" width="6.9666667" height="6.9666667"/>
			<rect x="48.7666626" y="188.0999908" style="fill:#FFFFFF;" width="6.9666667" height="6.9666667"/>
			<rect x="48.7666626" y="181.1333313" style="fill:#FFFFFF;" width="6.9666667" height="6.9666667"/>
			<rect x="48.7666626" y="174.1666565" style="fill:#FFFFFF;" width="6.9666667" height="6.9666667"/>
			<rect x="48.7666626" y="167.1999969" style="fill:#FFFFFF;" width="6.9666667" height="6.9666667"/>
			<rect x="48.7666626" y="160.2333221" style="fill:#5682B8;" width="6.9666667" height="6.9666667"/>
			<rect x="48.7666626" y="153.2666626" style="fill:#FCD8A8;" width="6.9666667" height="6.9666667"/>
			<rect x="48.7666626" y="146.3000031" style="fill:#BB6128;" width="6.9666667" height="6.9666667"/>
			<rect x="48.7666626" y="139.3333282" style="fill:#BB6128;" width="6.9666667" height="6.9666667"/>
			<rect x="48.7666626" y="132.3666687" style="fill:#BB6128;" width="6.9666667" height="6.9666667"/>
			<rect x="48.7666626" y="125.4000015" width="6.9666667" height="6.9666667"/>
			<rect x="48.7666626" y="118.4333344" style="fill:#BB6128;" width="6.9666667" height="6.9666667"/>
			<rect x="48.7666626" y="111.4666672" width="6.9666667" height="6.9666667"/>
			<rect x="48.7666626" y="104.5" style="fill:#FCD8A8;" width="6.9666667" height="6.9666667"/>
			<rect x="48.7666626" y="97.5333328" style="fill:#FCD8A8;" width="6.9666667" height="6.9666667"/>
			<rect x="48.7666626" y="90.5666656" style="fill:#FCD8A8;" width="6.9666667" height="6.9666667"/>
			<rect x="48.7666626" y="83.5999985" style="fill:#FCD8A8;" width="6.9666667" height="6.9666667"/>
			<rect x="48.7666626" y="76.6333313" width="6.9666667" height="6.9666667"/>
			<rect x="48.7666626" y="69.6666641" style="fill:#FCD8A8;" width="6.9666667" height="6.9666667"/>
			<rect x="48.7666626" y="62.7000008" style="fill:#FCD8A8;" width="6.9666667" height="6.9666667"/>
			<rect x="48.7666626" y="55.7333336" width="6.9666667" height="6.9666667"/>
			<rect x="48.7666626" y="48.7666664" style="fill:#BB6128;" width="6.9666667" height="6.9666667"/>
			<rect x="48.7666626" y="41.7999992" style="fill:#BB6128;" width="6.9666667" height="6.9666667"/>
			<rect x="48.7666626" y="34.8333321" style="fill:#BB6128;" width="6.9666667" height="6.9666667"/>
			<rect x="48.7666626" y="27.8666649" style="fill:#BB6128;" width="6.9666667" height="6.9666667"/>
			<rect x="48.7666626" y="20.9000015" style="fill:#BB6128;" width="6.9666667" height="6.9666667"/>
			<rect x="48.7666626" y="13.9333344" width="6.9666667" height="6.9666667"/>
			<rect x="41.8000031" y="383.1666565" width="6.9666667" height="6.9666667"/>
			<rect x="41.8000031" y="376.2000122" style="fill:#EFBB3A;" width="6.9666667" height="6.9666667"/>
			<rect x="41.8000031" y="369.2333374" width="6.9666667" height="6.9666667"/>
			<rect x="41.8000031" y="362.2666626" width="6.9666667" height="6.9666667"/>
			<rect x="41.8000031" y="355.2999878" width="6.9666667" height="6.9666667"/>
			<rect x="41.8000031" y="348.3333435" width="6.9666667" height="6.9666667"/>
			<rect x="41.8000031" y="341.3666687" width="6.9666667" height="6.9666667"/>
			<rect x="41.8000031" y="334.3999939" width="6.9666667" height="6.9666667"/>
			<rect x="41.8000031" y="327.4333191" width="6.9666667" height="6.9666667"/>
			<rect x="41.8000031" y="320.4666443" width="6.9666667" height="6.9666667"/>
			<rect x="41.8000031" y="313.5" width="6.9666667" height="6.9666667"/>
			<rect x="41.8000031" y="306.5333252" width="6.9666667" height="6.9666667"/>
			<rect x="41.8000031" y="299.5666504" width="6.9666667" height="6.9666667"/>
			<rect x="41.8000031" y="292.6000061" width="6.9666667" height="6.9666667"/>
			<rect x="41.8000031" y="285.6333313" width="6.9666667" height="6.9666667"/>
			<rect x="41.8000031" y="278.6666565" width="6.9666667" height="6.9666667"/>
			<rect x="41.8000031" y="271.6999817" width="6.9666667" height="6.9666667"/>
			<rect x="41.8000031" y="264.7333374" width="6.9666667" height="6.9666667"/>
			<rect x="41.8000031" y="257.7666626" width="6.9666667" height="6.9666667"/>
			<rect x="41.8000031" y="250.8000031" style="fill:#5F3A16;" width="6.9666667" height="6.9666667"/>
			<rect x="41.8000031" y="243.8333282" width="6.9666667" height="6.9666667"/>
			<rect x="41.8000031" y="236.8666687" style="fill:#FFFFFF;" width="6.9666667" height="6.9666667"/>
			<rect x="41.8000031" y="229.8999939" style="fill:#FFFFFF;" width="6.9666667" height="6.9666667"/>
			<rect x="41.8000031" y="222.9333344" style="fill:#FFFFFF;" width="6.9666667" height="6.9666667"/>
			<rect x="41.8000031" y="215.9666595" style="fill:#FFFFFF;" width="6.9666667" height="6.9666667"/>
			<rect x="41.8000031" y="209" style="fill:#FFFFFF;" width="6.9666667" height="6.9666667"/>
			<rect x="41.8000031" y="202.0333405" style="fill:#FFFFFF;" width="6.9666667" height="6.9666667"/>
			<rect x="41.8000031" y="195.0666656" style="fill:#FFFFFF;" width="6.9666667" height="6.9666667"/>
			<rect x="41.8000031" y="188.0999908" style="fill:#FFFFFF;" width="6.9666667" height="6.9666667"/>
			<rect x="41.8000031" y="181.1333313" style="fill:#FFFFFF;" width="6.9666667" height="6.9666667"/>
			<rect x="41.8000031" y="174.1666565" style="fill:#FFFFFF;" width="6.9666667" height="6.9666667"/>
			<rect x="41.8000031" y="167.1999969" style="fill:#FFFFFF;" width="6.9666667" height="6.9666667"/>
			<rect x="41.8000031" y="160.2333221" style="fill:#5682B8;" width="6.9666667" height="6.9666667"/>
			<rect x="41.8000031" y="153.2666626" style="fill:#FCD8A8;" width="6.9666667" height="6.9666667"/>
			<rect x="41.8000031" y="146.3000031" style="fill:#BB6128;" width="6.9666667" height="6.9666667"/>
			<rect x="41.8000031" y="139.3333282" style="fill:#BB6128;" width="6.9666667" height="6.9666667"/>
			<rect x="41.8000031" y="132.3666687" style="fill:#BB6128;" width="6.9666667" height="6.9666667"/>
			<rect x="41.8000031" y="125.4000015" width="6.9666667" height="6.9666667"/>
			<rect x="41.8000031" y="118.4333344" style="fill:#BB6128;" width="6.9666667" height="6.9666667"/>
			<rect x="41.8000031" y="111.4666672" width="6.9666667" height="6.9666667"/>
			<rect x="41.8000031" y="104.5" style="fill:#FCD8A8;" width="6.9666667" height="6.9666667"/>
			<rect x="41.8000031" y="97.5333328" style="fill:#FCD8A8;" width="6.9666667" height="6.9666667"/>
			<rect x="41.8000031" y="90.5666656" style="fill:#FCD8A8;" width="6.9666667" height="6.9666667"/>
			<rect x="41.8000031" y="83.5999985" style="fill:#FCD8A8;" width="6.9666667" height="6.9666667"/>
			<rect x="41.8000031" y="76.6333313" style="fill:#FCD8A8;" width="6.9666667" height="6.9666667"/>
			<rect x="41.8000031" y="69.6666641" style="fill:#FCD8A8;" width="6.9666667" height="6.9666667"/>
			<rect x="41.8000031" y="62.7000008" style="fill:#FCD8A8;" width="6.9666667" height="6.9666667"/>
			<rect x="41.8000031" y="55.7333336" style="fill:#FCD8A8;" width="6.9666667" height="6.9666667"/>
			<rect x="41.8000031" y="48.7666664" width="6.9666667" height="6.9666667"/>
			<rect x="41.8000031" y="41.7999992" style="fill:#BB6128;" width="6.9666667" height="6.9666667"/>
			<rect x="41.8000031" y="34.8333321" style="fill:#BB6128;" width="6.9666667" height="6.9666667"/>
			<rect x="41.8000031" y="27.8666649" style="fill:#BB6128;" width="6.9666667" height="6.9666667"/>
			<rect x="41.8000031" y="20.9000015" width="6.9666667" height="6.9666667"/>
			<rect x="34.8333359" y="383.1666565" width="6.9666667" height="6.9666667"/>
			<rect x="34.8333359" y="376.2000122" style="fill:#EFBB3A;" width="6.9666667" height="6.9666667"/>
			<rect x="34.8333359" y="369.2333374" width="6.9666667" height="6.9666667"/>
			<rect x="34.8333359" y="362.2666626" width="6.9666667" height="6.9666667"/>
			<rect x="34.8333359" y="355.2999878" width="6.9666667" height="6.9666667"/>
			<rect x="34.8333359" y="348.3333435" width="6.9666667" height="6.9666667"/>
			<rect x="34.8333359" y="341.3666687" width="6.9666667" height="6.9666667"/>
			<rect x="34.8333359" y="334.3999939" width="6.9666667" height="6.9666667"/>
			<rect x="34.8333359" y="327.4333191" width="6.9666667" height="6.9666667"/>
			<rect x="34.8333359" y="320.4666443" width="6.9666667" height="6.9666667"/>
			<rect x="34.8333359" y="313.5" width="6.9666667" height="6.9666667"/>
			<rect x="34.8333359" y="306.5333252" width="6.9666667" height="6.9666667"/>
			<rect x="34.8333359" y="299.5666504" width="6.9666667" height="6.9666667"/>
			<rect x="34.8333359" y="292.6000061" width="6.9666667" height="6.9666667"/>
			<rect x="34.8333359" y="285.6333313" width="6.9666667" height="6.9666667"/>
			<rect x="34.8333359" y="278.6666565" width="6.9666667" height="6.9666667"/>
			<rect x="34.8333359" y="271.6999817" width="6.9666667" height="6.9666667"/>
			<rect x="34.8333359" y="264.7333374" width="6.9666667" height="6.9666667"/>
			<rect x="34.8333359" y="257.7666626" width="6.9666667" height="6.9666667"/>
			<rect x="34.8333359" y="250.8000031" width="6.9666667" height="6.9666667"/>
			<rect x="34.8333359" y="243.8333282" width="6.9666667" height="6.9666667"/>
			<rect x="34.8333359" y="236.8666687" style="fill:#FFFFFF;" width="6.9666667" height="6.9666667"/>
			<rect x="34.8333359" y="229.8999939" style="fill:#FFFFFF;" width="6.9666667" height="6.9666667"/>
			<rect x="34.8333359" y="222.9333344" style="fill:#FFFFFF;" width="6.9666667" height="6.9666667"/>
			<rect x="34.8333359" y="215.9666595" style="fill:#FFFFFF;" width="6.9666667" height="6.9666667"/>
			<rect x="34.8333359" y="209" style="fill:#FFFFFF;" width="6.9666667" height="6.9666667"/>
			<rect x="34.8333359" y="202.0333405" style="fill:#FFFFFF;" width="6.9666667" height="6.9666667"/>
			<rect x="34.8333359" y="195.0666656" style="fill:#FFFFFF;" width="6.9666667" height="6.9666667"/>
			<rect x="34.8333359" y="188.0999908" style="fill:#FFFFFF;" width="6.9666667" height="6.9666667"/>
			<rect x="34.8333359" y="181.1333313" style="fill:#FFFFFF;" width="6.9666667" height="6.9666667"/>
			<rect x="34.8333359" y="174.1666565" style="fill:#FFFFFF;" width="6.9666667" height="6.9666667"/>
			<rect x="34.8333359" y="167.1999969" style="fill:#5682B8;" width="6.9666667" height="6.9666667"/>
			<rect x="34.8333359" y="160.2333221" style="fill:#5682B8;" width="6.9666667" height="6.9666667"/>
			<rect x="34.8333359" y="153.2666626" style="fill:#5682B8;" width="6.9666667" height="6.9666667"/>
			<rect x="34.8333359" y="146.3000031" style="fill:#BB6128;" width="6.9666667" height="6.9666667"/>
			<rect x="34.8333359" y="139.3333282" style="fill:#BB6128;" width="6.9666667" height="6.9666667"/>
			<rect x="34.8333359" y="132.3666687" style="fill:#FCD8A8;" width="6.9666667" height="6.9666667"/>
			<rect x="34.8333359" y="125.4000015" style="fill:#FCD8A8;" width="6.9666667" height="6.9666667"/>
			<rect x="34.8333359" y="118.4333344" style="fill:#BB6128;" width="6.9666667" height="6.9666667"/>
			<rect x="34.8333359" y="111.4666672" style="fill:#FCD8A8;" width="6.9666667" height="6.9666667"/>
			<rect x="34.8333359" y="104.5" style="fill:#FCD8A8;" width="6.9666667" height="6.9666667"/>
			<rect x="34.8333359" y="97.5333328" style="fill:#FCD8A8;" width="6.9666667" height="6.9666667"/>
			<rect x="34.8333359" y="90.5666656" style="fill:#97A1AA;" width="6.9666667" height="6.9666667"/>
			<rect x="34.8333359" y="83.5999985" style="fill:#97A1AA;" width="6.9666667" height="6.9666667"/>
			<rect x="34.8333359" y="76.6333313" style="fill:#FCD8A8;" width="6.9666667" height="6.9666667"/>
			<rect x="34.8333359" y="69.6666641" width="6.9666667" height="6.9666667"/>
			<rect x="34.8333359" y="62.7000008" style="fill:#FCD8A8;" width="6.9666667" height="6.9666667"/>
			<rect x="34.8333359" y="55.7333336" style="fill:#FCD8A8;" width="6.9666667" height="6.9666667"/>
			<rect x="34.8333359" y="48.7666664" width="6.9666667" height="6.9666667"/>
			<rect x="34.8333359" y="41.7999992" style="fill:#BB6128;" width="6.9666667" height="6.9666667"/>
			<rect x="34.8333359" y="34.8333321" style="fill:#BB6128;" width="6.9666667" height="6.9666667"/>
			<rect x="34.8333359" y="27.8666649" style="fill:#BB6128;" width="6.9666667" height="6.9666667"/>
			<rect x="34.8333359" y="20.9000015" width="6.9666667" height="6.9666667"/>
			<rect x="27.8666687" y="383.1666565" width="6.9666667" height="6.9666667"/>
			<rect x="27.8666687" y="376.2000122" style="fill:#EFBB3A;" width="6.9666667" height="6.9666667"/>
			<rect x="27.8666687" y="369.2333374" width="6.9666667" height="6.9666667"/>
			<rect x="27.8666687" y="362.2666626" width="6.9666667" height="6.9666667"/>
			<rect x="27.8666687" y="355.2999878" width="6.9666667" height="6.9666667"/>
			<rect x="27.8666687" y="348.3333435" width="6.9666667" height="6.9666667"/>
			<rect x="27.8666687" y="341.3666687" width="6.9666667" height="6.9666667"/>
			<rect x="27.8666687" y="334.3999939" width="6.9666667" height="6.9666667"/>
			<rect x="27.8666687" y="327.4333191" width="6.9666667" height="6.9666667"/>
			<rect x="27.8666687" y="320.4666443" width="6.9666667" height="6.9666667"/>
			<rect x="27.8666687" y="313.5" width="6.9666667" height="6.9666667"/>
			<rect x="27.8666687" y="306.5333252" width="6.9666667" height="6.9666667"/>
			<rect x="27.8666687" y="299.5666504" width="6.9666667" height="6.9666667"/>
			<rect x="27.8666687" y="292.6000061" width="6.9666667" height="6.9666667"/>
			<rect x="27.8666687" y="285.6333313" width="6.9666667" height="6.9666667"/>
			<rect x="27.8666687" y="278.6666565" width="6.9666667" height="6.9666667"/>
			<rect x="27.8666687" y="271.6999817" width="6.9666667" height="6.9666667"/>
			<rect x="27.8666687" y="264.7333374" width="6.9666667" height="6.9666667"/>
			<rect x="27.8666687" y="257.7666626" width="6.9666667" height="6.9666667"/>
			<rect x="27.8666687" y="250.8000031" style="fill:#5F3A16;" width="6.9666667" height="6.9666667"/>
			<rect x="27.8666687" y="243.8333282" width="6.9666667" height="6.9666667"/>
			<rect x="27.8666687" y="236.8666687" style="fill:#FFFFFF;" width="6.9666667" height="6.9666667"/>
			<rect x="27.8666687" y="229.8999939" style="fill:#FFFFFF;" width="6.9666667" height="6.9666667"/>
			<rect x="27.8666687" y="222.9333344" style="fill:#FFFFFF;" width="6.9666667" height="6.9666667"/>
			<rect x="27.8666687" y="215.9666595" style="fill:#FFFFFF;" width="6.9666667" height="6.9666667"/>
			<rect x="27.8666687" y="209" style="fill:#FFFFFF;" width="6.9666667" height="6.9666667"/>
			<rect x="27.8666687" y="202.0333405" style="fill:#FFFFFF;" width="6.9666667" height="6.9666667"/>
			<rect x="27.8666687" y="195.0666656" style="fill:#FFFFFF;" width="6.9666667" height="6.9666667"/>
			<rect x="27.8666687" y="188.0999908" style="fill:#FFFFFF;" width="6.9666667" height="6.9666667"/>
			<rect x="27.8666687" y="181.1333313" style="fill:#FFFFFF;" width="6.9666667" height="6.9666667"/>
			<rect x="27.8666687" y="174.1666565" style="fill:#FFFFFF;" width="6.9666667" height="6.9666667"/>
			<rect x="27.8666687" y="167.1999969" style="fill:#FFFFFF;" width="6.9666667" height="6.9666667"/>
			<rect x="27.8666687" y="160.2333221" width="6.9666667" height="6.9666667"/>
			<rect x="27.8666687" y="153.2666626" width="6.9666667" height="6.9666667"/>
			<rect x="27.8666687" y="146.3000031" style="fill:#BB6128;" width="6.9666667" height="6.9666667"/>
			<rect x="27.8666687" y="139.3333282" style="fill:#BB6128;" width="6.9666667" height="6.9666667"/>
			<rect x="27.8666687" y="132.3666687" style="fill:#BB6128;" width="6.9666667" height="6.9666667"/>
			<rect x="27.8666687" y="125.4000015" style="fill:#BB6128;" width="6.9666667" height="6.9666667"/>
			<rect x="27.8666687" y="118.4333344" style="fill:#BB6128;" width="6.9666667" height="6.9666667"/>
			<rect x="27.8666687" y="111.4666672" style="fill:#FCD8A8;" width="6.9666667" height="6.9666667"/>
			<rect x="27.8666687" y="104.5" style="fill:#FCD8A8;" width="6.9666667" height="6.9666667"/>
			<rect x="27.8666687" y="97.5333328" style="fill:#FCD8A8;" width="6.9666667" height="6.9666667"/>
			<rect x="27.8666687" y="90.5666656" style="fill:#97A1AA;" width="6.9666667" height="6.9666667"/>
			<rect x="27.8666687" y="83.5999985" style="fill:#302718;" width="6.9666667" height="6.9666667"/>
			<rect x="27.8666687" y="76.6333313" style="fill:#FCD8A8;" width="6.9666667" height="6.9666667"/>
			<rect x="27.8666687" y="69.6666641" width="6.9666667" height="6.9666667"/>
			<rect x="27.8666687" y="62.7000008" style="fill:#FCD8A8;" width="6.9666667" height="6.9666667"/>
			<rect x="27.8666687" y="55.7333336" style="fill:#FCD8A8;" width="6.9666667" height="6.9666667"/>
			<rect x="27.8666687" y="48.7666664" width="6.9666667" height="6.9666667"/>
			<rect x="27.8666687" y="41.7999992" style="fill:#BB6128;" width="6.9666667" height="6.9666667"/>
			<rect x="27.8666687" y="34.8333321" style="fill:#BB6128;" width="6.9666667" height="6.9666667"/>
			<rect x="27.8666687" y="27.8666649" style="fill:#BB6128;" width="6.9666667" height="6.9666667"/>
			<rect x="27.8666687" y="20.9000015" width="6.9666667" height="6.9666667"/>
			<rect x="20.8999977" y="383.1666565" width="6.9666667" height="6.9666667"/>
			<rect x="20.8999977" y="376.2000122" style="fill:#EFBB3A;" width="6.9666667" height="6.9666667"/>
			<rect x="20.8999977" y="369.2333374" style="fill:#EFBB3A;" width="6.9666667" height="6.9666667"/>
			<rect x="20.8999977" y="362.2666626" width="6.9666667" height="6.9666667"/>
			<rect x="20.8999977" y="355.2999878" width="6.9666667" height="6.9666667"/>
			<rect x="20.8999977" y="348.3333435" width="6.9666667" height="6.9666667"/>
			<rect x="20.8999977" y="341.3666687" width="6.9666667" height="6.9666667"/>
			<rect x="20.8999977" y="334.3999939" width="6.9666667" height="6.9666667"/>
			<rect x="20.8999977" y="327.4333191" width="6.9666667" height="6.9666667"/>
			<rect x="20.8999977" y="320.4666443" width="6.9666667" height="6.9666667"/>
			<rect x="20.8999977" y="313.5" width="6.9666667" height="6.9666667"/>
			<rect x="20.8999977" y="306.5333252" width="6.9666667" height="6.9666667"/>
			<rect x="20.8999977" y="299.5666504" width="6.9666667" height="6.9666667"/>
			<rect x="20.8999977" y="292.6000061" width="6.9666667" height="6.9666667"/>
			<rect x="20.8999977" y="285.6333313" width="6.9666667" height="6.9666667"/>
			<rect x="20.8999977" y="278.6666565" width="6.9666667" height="6.9666667"/>
			<rect x="20.8999977" y="271.6999817" width="6.9666667" height="6.9666667"/>
			<rect x="20.8999977" y="264.7333374" style="fill:#FCD8A8;" width="6.9666667" height="6.9666667"/>
			<rect x="20.8999977" y="257.7666626" style="fill:#FCD8A8;" width="6.9666667" height="6.9666667"/>
			<rect x="20.8999977" y="250.8000031" style="fill:#FCD8A8;" width="6.9666667" height="6.9666667"/>
			<rect x="20.8999977" y="243.8333282" width="6.9666667" height="6.9666667"/>
			<rect x="20.8999977" y="236.8666687" width="6.9666667" height="6.9666667"/>
			<rect x="20.8999977" y="229.8999939" width="6.9666667" height="6.9666667"/>
			<rect x="20.8999977" y="222.9333344" width="6.9666667" height="6.9666667"/>
			<rect x="20.8999977" y="215.9666595" width="6.9666667" height="6.9666667"/>
			<rect x="20.8999977" y="209" width="6.9666667" height="6.9666667"/>
			<rect x="20.8999977" y="202.0333405" width="6.9666667" height="6.9666667"/>
			<rect x="20.8999977" y="195.0666656" width="6.9666667" height="6.9666667"/>
			<rect x="20.8999977" y="188.0999908" width="6.9666667" height="6.9666667"/>
			<rect x="20.8999977" y="181.1333313" style="fill:#FFFFFF;" width="6.9666667" height="6.9666667"/>
			<rect x="20.8999977" y="174.1666565" style="fill:#FFFFFF;" width="6.9666667" height="6.9666667"/>
			<rect x="20.8999977" y="167.1999969" width="6.9666667" height="6.9666667"/>
			<rect x="20.8999977" y="160.2333221" width="6.9666667" height="6.9666667"/>
			<rect x="20.8999977" y="146.3000031" width="6.9666667" height="6.9666667"/>
			<rect x="20.8999977" y="139.3333282" width="6.9666667" height="6.9666667"/>
			<rect x="20.8999977" y="132.3666687" style="fill:#BB6128;" width="6.9666667" height="6.9666667"/>
			<rect x="20.8999977" y="125.4000015" style="fill:#BB6128;" width="6.9666667" height="6.9666667"/>
			<rect x="20.8999977" y="118.4333344" style="fill:#BB6128;" width="6.9666667" height="6.9666667"/>
			<rect x="20.8999977" y="111.4666672" style="fill:#FCD8A8;" width="6.9666667" height="6.9666667"/>
			<rect x="20.8999977" y="104.5" style="fill:#FCD8A8;" width="6.9666667" height="6.9666667"/>
			<rect x="20.8999977" y="97.5333328" style="fill:#FCD8A8;" width="6.9666667" height="6.9666667"/>
			<rect x="20.8999977" y="90.5666656" style="fill:#FCD8A8;" width="6.9666667" height="6.9666667"/>
			<rect x="20.8999977" y="83.5999985" style="fill:#FCD8A8;" width="6.9666667" height="6.9666667"/>
			<rect x="20.8999977" y="76.6333313" width="6.9666667" height="6.9666667"/>
			<rect x="20.8999977" y="69.6666641" style="fill:#FCD8A8;" width="6.9666667" height="6.9666667"/>
			<rect x="20.8999977" y="62.7000008" style="fill:#FCD8A8;" width="6.9666667" height="6.9666667"/>
			<rect x="20.8999977" y="55.7333336" width="6.9666667" height="6.9666667"/>
			<rect x="20.8999977" y="48.7666664" style="fill:#BB6128;" width="6.9666667" height="6.9666667"/>
			<rect x="20.8999977" y="41.7999992" style="fill:#BB6128;" width="6.9666667" height="6.9666667"/>
			<rect x="20.8999977" y="34.8333321" style="fill:#BB6128;" width="6.9666667" height="6.9666667"/>
			<rect x="20.8999977" y="27.8666649" width="6.9666667" height="6.9666667"/>
			<rect x="13.9333353" y="383.1666565" width="6.9666667" height="6.9666667"/>
			<rect x="13.9333353" y="376.2000122" style="fill:#EFBB3A;" width="6.9666667" height="6.9666667"/>
			<rect x="13.9333353" y="369.2333374" style="fill:#EFBB3A;" width="6.9666667" height="6.9666667"/>
			<rect x="13.9333353" y="271.6999817" width="6.9666667" height="6.9666667"/>
			<rect x="13.9333353" y="264.7333374" width="6.9666667" height="6.9666667"/>
			<rect x="13.9333353" y="257.7666626" style="fill:#FCD8A8;" width="6.9666667" height="6.9666667"/>
			<rect x="13.9333353" y="250.8000031" style="fill:#FCD8A8;" width="6.9666667" height="6.9666667"/>
			<rect x="13.9333353" y="243.8333282" style="fill:#FCD8A8;" width="6.9666667" height="6.9666667"/>
			<rect x="13.9333353" y="236.8666687" style="fill:#FCD8A8;" width="6.9666667" height="6.9666667"/>
			<rect x="13.9333353" y="229.8999939" style="fill:#FCD8A8;" width="6.9666667" height="6.9666667"/>
			<rect x="13.9333353" y="222.9333344" style="fill:#FCD8A8;" width="6.9666667" height="6.9666667"/>
			<rect x="13.9333353" y="215.9666595" style="fill:#FFFFFF;" width="6.9666667" height="6.9666667"/>
			<rect x="13.9333353" y="209" style="fill:#FFFFFF;" width="6.9666667" height="6.9666667"/>
			<rect x="13.9333353" y="202.0333405" style="fill:#FFFFFF;" width="6.9666667" height="6.9666667"/>
			<rect x="13.9333353" y="195.0666656" style="fill:#FFFFFF;" width="6.9666667" height="6.9666667"/>
			<rect x="13.9333353" y="188.0999908" style="fill:#FFFFFF;" width="6.9666667" height="6.9666667"/>
			<rect x="13.9333353" y="181.1333313" style="fill:#FFFFFF;" width="6.9666667" height="6.9666667"/>
			<rect x="13.9333353" y="174.1666565" style="fill:#FFFFFF;" width="6.9666667" height="6.9666667"/>
			<rect x="13.9333353" y="167.1999969" width="6.9666667" height="6.9666667"/>
			<rect x="13.9333353" y="132.3666687" width="6.9666667" height="6.9666667"/>
			<rect x="13.9333353" y="125.4000015" style="fill:#BB6128;" width="6.9666667" height="6.9666667"/>
			<rect x="13.9333353" y="118.4333344" style="fill:#BB6128;" width="6.9666667" height="6.9666667"/>
			<rect x="13.9333353" y="111.4666672" style="fill:#BB6128;" width="6.9666667" height="6.9666667"/>
			<rect x="13.9333353" y="104.5" style="fill:#BB6128;" width="6.9666667" height="6.9666667"/>
			<rect x="13.9333353" y="97.5333328" style="fill:#BB6128;" width="6.9666667" height="6.9666667"/>
			<rect x="13.9333353" y="90.5666656" width="6.9666667" height="6.9666667"/>
			<rect x="13.9333353" y="83.5999985" width="6.9666667" height="6.9666667"/>
			<rect x="13.9333353" y="76.6333313" width="6.9666667" height="6.9666667"/>
			<rect x="13.9333353" y="69.6666641" width="6.9666667" height="6.9666667"/>
			<rect x="13.9333353" y="62.7000008" width="6.9666667" height="6.9666667"/>
			<rect x="13.9333353" y="55.7333336" style="fill:#BB6128;" width="6.9666667" height="6.9666667"/>
			<rect x="13.9333353" y="48.7666664" style="fill:#BB6128;" width="6.9666667" height="6.9666667"/>
			<rect x="13.9333353" y="41.7999992" style="fill:#BB6128;" width="6.9666667" height="6.9666667"/>
			<rect x="13.9333353" y="34.8333321" width="6.9666667" height="6.9666667"/>
			<rect x="6.9666677" y="383.1666565" width="6.9666667" height="6.9666667"/>
			<rect x="6.9666677" y="376.2000122" style="fill:#EFBB3A;" width="6.9666667" height="6.9666667"/>
			<rect x="6.9666677" y="264.7333374" width="6.9666667" height="6.9666667"/>
			<rect x="6.9666677" y="257.7666626" width="6.9666667" height="6.9666667"/>
			<rect x="6.9666677" y="250.8000031" width="6.9666667" height="6.9666667"/>
			<rect x="6.9666677" y="243.8333282" width="6.9666667" height="6.9666667"/>
			<rect x="6.9666677" y="236.8666687" width="6.9666667" height="6.9666667"/>
			<rect x="6.9666677" y="229.8999939" width="6.9666667" height="6.9666667"/>
			<rect x="6.9666677" y="222.9333344" width="6.9666667" height="6.9666667"/>
			<rect x="6.9666677" y="215.9666595" style="fill:#FFFFFF;" width="6.9666667" height="6.9666667"/>
			<rect x="6.9666677" y="209" style="fill:#FFFFFF;" width="6.9666667" height="6.9666667"/>
			<rect x="6.9666677" y="202.0333405" style="fill:#FFFFFF;" width="6.9666667" height="6.9666667"/>
			<rect x="6.9666677" y="195.0666656" style="fill:#FFFFFF;" width="6.9666667" height="6.9666667"/>
			<rect x="6.9666677" y="188.0999908" style="fill:#FFFFFF;" width="6.9666667" height="6.9666667"/>
			<rect x="6.9666677" y="181.1333313" style="fill:#FFFFFF;" width="6.9666667" height="6.9666667"/>
			<rect x="6.9666677" y="174.1666565" width="6.9666667" height="6.9666667"/>
			<rect x="6.9666677" y="132.3666687" width="6.9666667" height="6.9666667"/>
			<rect x="6.9666677" y="125.4000015" width="6.9666667" height="6.9666667"/>
			<rect x="6.9666677" y="118.4333344" width="6.9666667" height="6.9666667"/>
			<rect x="6.9666677" y="111.4666672" width="6.9666667" height="6.9666667"/>
			<rect x="6.9666677" y="104.5" style="fill:#FCD8A8;" width="6.9666667" height="6.9666667"/>
			<rect x="6.9666677" y="97.5333328" style="fill:#FCD8A8;" width="6.9666667" height="6.9666667"/>
			<rect x="6.9666677" y="90.5666656" width="6.9666667" height="6.9666667"/>
			<rect x="6.9666677" y="83.5999985" style="fill:#BB6128;" width="6.9666667" height="6.9666667"/>
			<rect x="6.9666677" y="76.6333313" style="fill:#BB6128;" width="6.9666667" height="6.9666667"/>
			<rect x="6.9666677" y="69.6666641" style="fill:#BB6128;" width="6.9666667" height="6.9666667"/>
			<rect x="6.9666677" y="62.7000008" style="fill:#BB6128;" width="6.9666667" height="6.9666667"/>
			<rect x="6.9666677" y="55.7333336" style="fill:#BB6128;" width="6.9666667" height="6.9666667"/>
			<rect x="6.9666677" y="48.7666664" width="6.9666667" height="6.9666667"/>
			<rect x="6.9666677" y="41.7999992" width="6.9666667" height="6.9666667"/>
			<rect x="0.0000005" y="215.9666595" width="6.9666667" height="6.9666667"/>
			<rect x="0.0000005" y="209" width="6.9666667" height="6.9666667"/>
			<rect x="0.0000005" y="202.0333405" width="6.9666667" height="6.9666667"/>
			<rect x="0.0000005" y="195.0666656" width="6.9666667" height="6.9666667"/>
			<rect x="0.0000005" y="188.0999908" width="6.9666667" height="6.9666667"/>
			<rect x="0.0000005" y="181.1333313" width="6.9666667" height="6.9666667"/>
			<rect x="0.0000005" y="111.4666672" width="6.9666667" height="6.9666667"/>
			<rect x="0.0000005" y="104.5" width="6.9666667" height="6.9666667"/>
			<rect x="0.0000005" y="97.5333328" width="6.9666667" height="6.9666667"/>
			<rect x="0.0000005" y="90.5666656" width="6.9666667" height="6.9666667"/>
			<rect x="0.0000005" y="83.5999985" width="6.9666667" height="6.9666667"/>
			<rect x="0.0000005" y="76.6333313" width="6.9666667" height="6.9666667"/>
			<rect x="0.0000005" y="69.6666641" width="6.9666667" height="6.9666667"/>
			<rect x="0.0000005" y="62.7000008" width="6.9666667" height="6.9666667"/>
			<rect x="0.0000005" y="55.7333336" width="6.9666667" height="6.9666667"/>
			<rect x="0.0000005" y="48.7666664" width="6.9666667" height="6.9666667"/>
		</g>
		<g>
		</g>
	</g>
</g>
</svg>
